<?xml version="1.0" encoding="UTF-8" standalone="no"?>
<svg width="46px" height="31px" viewBox="0 0 46 31" version="1.1" xmlns="http://www.w3.org/2000/svg" xmlns:xlink="http://www.w3.org/1999/xlink" xmlns:sketch="http://www.bohemiancoding.com/sketch/ns">
    <!-- Generator: sketchtool 3.4.4 (395) - http://www.bohemiancoding.com/sketch -->
    <title>fish_icon</title>
    <desc>Created with sketchtool.</desc>
    <defs></defs>
    <g id="Toolkit-&amp;-Styleguide" stroke="none" stroke-width="1" fill="none" fill-rule="evenodd" sketch:type="MSPage">
        <g id="Global-Style" sketch:type="MSArtboardGroup" transform="translate(-893.000000, -1117.000000)" fill="#0A5089">
            <g id="Icons" sketch:type="MSLayerGroup" transform="translate(708.000000, 946.000000)">
                <path d="M230.852038,187.791788 C230.171269,185.008042 228.776575,182.616531 226.902872,180.497329 C224.414714,177.683248 221.432734,175.834237 217.875098,175.128777 C207.039935,168.280874 198.896807,172.260376 198.896807,172.260376 C198.395225,172.505876 198.168772,173.125975 198.395225,173.638139 L200.886205,179.276177 C199.55218,180.240541 198.237907,181.18868 196.917991,182.125531 C196.438279,182.467679 195.914827,182.751274 195.388554,183.021466 C194.901081,183.271904 194.434772,183.183721 194.035481,182.800657 C193.729311,182.508596 193.429491,182.210892 193.123321,181.918831 C191.048562,179.943543 188.609787,178.910043 185.715989,179.102634 C185.462729,179.119565 185.085307,179.317799 185.016172,179.518856 C184.944215,179.725555 185.126224,180.078286 185.289185,180.296273 C186.211927,181.525184 187.239783,182.682139 188.07787,183.966782 C188.554761,184.694112 188.846821,185.592163 189.028124,186.452119 C189.287734,187.676092 188.824246,188.824581 188.149121,189.81152 C187.245426,191.134258 186.198524,192.357526 185.236276,193.642169 C185.085307,193.846047 184.955503,194.179024 185.018994,194.39419 C185.071198,194.573377 185.421106,194.782898 185.636272,194.777255 C186.561836,194.755385 187.501509,194.749742 188.405909,194.573377 C190.50818,194.162799 192.180826,192.980447 193.649594,191.462297 C194.479215,190.602341 194.867924,190.500049 195.945162,191.018563 C196.871431,191.462297 197.758195,192.001974 198.623794,192.558582 C200.164519,193.553987 201.685492,194.584664 203.242442,195.625923 L203.23962,195.625923 L199.469641,197.857999 C198.987812,198.141594 198.910211,198.706668 199.296098,199.111602 C199.296098,199.111602 203.981059,204.027954 212.256107,198.817425 L212.253286,198.817425 C216.689925,198.99379 220.884591,198.070343 224.819648,195.992762 C226.845024,194.923285 228.674988,193.597725 230.047108,191.724023 C230.917646,190.536028 231.206885,189.249268 230.852038,187.791788 L230.852038,187.791788 Z M219.74104,187.499727 C218.447932,187.499727 217.403851,186.452119 217.403851,185.162537 C217.403851,184.421099 217.748115,183.762904 218.282854,183.335395 C218.684966,182.979843 219.209123,182.765384 219.776313,182.770322 C220.462726,182.778787 221.082825,183.106826 221.490582,183.61123 C221.857421,184.02463 222.080346,184.567129 222.080346,185.162537 C222.080346,186.452119 221.033443,187.499727 219.74104,187.499727 L219.74104,187.499727 Z" id="fish_icon" sketch:type="MSShapeGroup"></path>
            </g>
        </g>
    </g>
</svg>