<?xml version="1.0" encoding="UTF-8" standalone="no"?>
<svg width="38px" height="40px" viewBox="0 0 38 40" version="1.1" xmlns="http://www.w3.org/2000/svg" xmlns:xlink="http://www.w3.org/1999/xlink" xmlns:sketch="http://www.bohemiancoding.com/sketch/ns">
    <!-- Generator: Sketch 3.4.1 (15681) - http://www.bohemiancoding.com/sketch -->
    <title>map_icon</title>
    <desc>Created with Sketch.</desc>
    <defs></defs>
    <g id="Toolkit-&amp;-Styleguide" stroke="none" stroke-width="1" fill="none" fill-rule="evenodd" sketch:type="MSPage">
        <g id="Global-Style" sketch:type="MSArtboardGroup" transform="translate(-912.000000, -1042.000000)" fill="#FFFFFF">
            <g id="Icons" sketch:type="MSLayerGroup" transform="translate(708.000000, 946.000000)">
                <path d="M230.646238,106.880622 C228.748594,106.880622 227.209701,105.342477 227.209701,103.444833 C227.209701,101.547189 228.748594,100.008296 230.646238,100.008296 C232.543882,100.008296 234.085017,101.547189 234.085017,103.444833 C234.082774,105.342477 232.543882,106.880622 230.646238,106.880622 L230.646238,106.880622 Z M230.646238,115.9929 C230.646238,115.9929 237.787627,107.085409 237.787627,103.140642 C237.787627,99.1966218 234.590258,96 230.646238,96 C226.702218,96 223.504849,99.1966218 223.504849,103.140642 C223.504849,107.085409 230.646238,115.9929 230.646238,115.9929 L230.646238,115.9929 Z M214.03083,133.183056 L206.606925,130.123209 L206.606925,108.860479 L214.03083,111.917338 L214.03083,133.183056 Z M241.999963,132.739102 L241.999963,105.847718 L239.314561,104.41645 C239.109774,105.175807 238.786151,105.999439 238.382556,106.848484 L239.399017,107.59065 L239.399017,128.853379 L231.974364,125.796521 L231.974364,116.158822 C231.709038,116.503373 231.51023,116.751509 231.413816,116.874082 L230.646238,117.829257 L229.880902,116.874082 C229.790467,116.760478 229.609597,116.535511 229.370429,116.226088 L229.370429,126.86829 L216.632523,132.114277 L216.632523,110.848558 L223.359106,108.539098 C222.935331,107.724434 222.567612,106.924718 222.287337,106.165362 L214.027841,109.102636 L204,104.974757 L204,131.869131 L214.027841,136 L231.974364,128.611222 L241.999963,132.739102 Z" id="MAP_ICO" sketch:type="MSShapeGroup"></path>
            </g>
        </g>
    </g>
</svg>