<?xml version="1.0" encoding="UTF-8" standalone="no"?>
<svg width="24px" height="24px" viewBox="0 0 24 24" version="1.1" xmlns="http://www.w3.org/2000/svg" xmlns:xlink="http://www.w3.org/1999/xlink" xmlns:sketch="http://www.bohemiancoding.com/sketch/ns">
    <!-- Generator: Sketch 3.4.1 (15681) - http://www.bohemiancoding.com/sketch -->
    <title>phone_icon</title>
    <desc>Created with Sketch.</desc>
    <defs></defs>
    <g id="00.-Home" stroke="none" stroke-width="1" fill="none" fill-rule="evenodd" sketch:type="MSPage">
        <g id="Sign-Up" sketch:type="MSArtboardGroup" transform="translate(-324.000000, -355.000000)" fill="#A4A4A4">
            <path d="M330.229083,370.420983 C333.996352,374.980116 343.17709,379.348037 345.39313,378.36707 C347.609171,377.385681 348.084036,375.26377 347.988641,374.282802 C347.892824,373.301835 342.860513,370.294352 341.594204,369.723669 C340.327895,369.153408 338.872062,370.989978 338.174748,371.781421 C337.445777,372.541628 334.661164,370.22977 333.457326,369.059279 C333.457326,369.059279 330.291555,365.514037 331.020526,364.754251 C331.749076,363.994044 333.553144,362.475318 332.919989,361.240245 C332.286835,360.005594 329.087717,355.06699 328.075514,355.004519 C327.094547,354.942047 325.00556,355.51062 324.1183,357.757896 C323.231039,360.005594 327.473596,368.584413 332.191018,372.162157" id="phone_icon" sketch:type="MSShapeGroup"></path>
        </g>
    </g>
</svg>