<?xml version="1.0" encoding="UTF-8" standalone="no"?>
<svg width="14px" height="14px" viewBox="0 0 14 14" version="1.1" xmlns="http://www.w3.org/2000/svg" xmlns:xlink="http://www.w3.org/1999/xlink" xmlns:sketch="http://www.bohemiancoding.com/sketch/ns">
    <!-- Generator: Sketch 3.4.2 (15857) - http://www.bohemiancoding.com/sketch -->
    <title>Search</title>
    <desc>Created with Sketch.</desc>
    <defs></defs>
    <g id="05.-Map" stroke="none" stroke-width="1" fill="none" fill-rule="evenodd" sketch:type="MSPage">
        <g id="Map" sketch:type="MSArtboardGroup" transform="translate(-153.000000, -81.000000)" fill="#8E8E93">
            <g id="Search" sketch:type="MSLayerGroup" transform="translate(0.000000, 66.000000)">
                <g id="Text-input-field" transform="translate(8.000000, 8.000000)" sketch:type="MSShapeGroup">
                    <path d="M158.118,19.399 L154.376,15.6575 C155.078,14.7965 155.5,13.6985 155.5,12.501 C155.5,9.7395 153.2615,7.501 150.5,7.501 C147.739,7.501 145.5,9.7395 145.5,12.501 C145.5,15.262 147.739,17.5005 150.5,17.5005 C151.7035,17.5005 152.8075,17.075 153.6705,16.3665 L157.4105,20.1065 L158.118,19.399 L158.118,19.399 Z M150.5,16.5 C148.291,16.5 146.5,14.709 146.5,12.5 C146.5,10.2905 148.2905,8.4995 150.5,8.4995 C152.709,8.4995 154.5,10.2905 154.5,12.5 C154.5005,14.7095 152.7095,16.5 150.5,16.5 L150.5,16.5 Z" id="Search"></path>
                </g>
            </g>
        </g>
    </g>
</svg>