<?xml version="1.0" encoding="UTF-8" standalone="no"?>
<svg width="27px" height="27px" viewBox="0 0 27 27" version="1.1" xmlns="http://www.w3.org/2000/svg" xmlns:xlink="http://www.w3.org/1999/xlink" xmlns:sketch="http://www.bohemiancoding.com/sketch/ns">
    <!-- Generator: Sketch 3.4.1 (15681) - http://www.bohemiancoding.com/sketch -->
    <title>Warning_icon</title>
    <desc>Created with Sketch.</desc>
    <defs></defs>
    <g id="02.-Session-Changes" stroke="none" stroke-width="1" fill="none" fill-rule="evenodd" sketch:type="MSPage">
        <g id="Location-Change-Home" sketch:type="MSArtboardGroup" transform="translate(-175.000000, -122.000000)" fill="#ED1C2E">
            <path d="M188.5,122 C181.0592,122 175,128.0592 175,135.5 C175,142.9408 181.0592,149 188.5,149 C195.9408,149 202,142.9408 202,135.5 C202,128.0592 195.9408,122 188.5,122 L188.5,122 Z M188.5,143.6 C187.75,143.6 187.15,143 187.15,142.25 C187.15,141.5 187.75,140.9 188.5,140.9 C189.25,140.9 189.85,141.5 189.85,142.25 C189.85,143 189.25,143.6 188.5,143.6 L188.5,143.6 Z M190.5408,130.1 L189.85,138.2 C189.7908,138.95 189.1296,139.4908 188.3796,139.4296 C187.7204,139.3704 187.2092,138.8296 187.15,138.2 L186.4592,130.1 C186.3688,128.9908 187.2092,128 188.3188,127.9092 C189.428,127.8188 190.4188,128.6592 190.5092,129.7688 C190.5408,129.8592 190.5408,129.9796 190.5408,130.1 L190.5408,130.1 Z" id="Warning_ICO" sketch:type="MSShapeGroup"></path>
        </g>
    </g>
</svg>