<?xml version="1.0" encoding="UTF-8" standalone="no"?>
<svg width="45px" height="44px" viewBox="0 0 45 44" version="1.1" xmlns="http://www.w3.org/2000/svg" xmlns:xlink="http://www.w3.org/1999/xlink" xmlns:sketch="http://www.bohemiancoding.com/sketch/ns">
    <!-- Generator: sketchtool 3.4.4 (395) - http://www.bohemiancoding.com/sketch -->
    <title>storm_ico</title>
    <desc>Created with sketchtool.</desc>
    <defs></defs>
    <g id="Toolkit-&amp;-Styleguide" stroke="none" stroke-width="1" fill="none" fill-rule="evenodd" sketch:type="MSPage">
        <g id="Global-Style" sketch:type="MSArtboardGroup" transform="translate(-973.000000, -1642.000000)">
            <g id="Icons" sketch:type="MSLayerGroup" transform="translate(708.000000, 946.000000)">
                <g id="storm_ico" transform="translate(265.000000, 696.000000)" sketch:type="MSShapeGroup">
                    <path d="M9.90495868,34.3229498 C9.29918945,33.9682136 8.52248887,34.1749046 8.17061348,34.7785283 L7.70073109,35.5831214 C7.34885569,36.1896058 7.55268595,36.9663064 8.1563096,37.3181818 C8.35727908,37.4354736 8.578274,37.4912587 8.79354736,37.4912587 C9.22910045,37.4912587 9.65392562,37.2652575 9.89136999,36.8626033 L10.3605372,36.0580102 C10.7124126,35.4543865 10.5085823,34.677686 9.90495868,34.3229498 L9.90495868,34.3229498 Z" id="Fill-2" fill="#0D65AD"></path>
                    <path d="M14.5174825,40.7063732 C13.9117133,40.351637 13.1350127,40.558328 12.7824221,41.1619517 L12.3132549,41.9665448 C11.9613795,42.5730292 12.1652098,43.3490146 12.7688334,43.7016052 C12.9698029,43.818897 13.1907978,43.8746821 13.4060712,43.8746821 C13.8416243,43.8746821 14.2664495,43.6479657 14.5038938,43.2460267 L14.973061,42.4414336 C15.3277972,41.8349491 15.1239669,41.0582486 14.5174825,40.7063732 L14.5174825,40.7063732 Z" id="Fill-6" fill="#0D65AD"></path>
                    <path d="M33.4717101,34.3229498 C32.8659409,33.9682136 32.0892403,34.1749046 31.7373649,34.7785283 L31.2674825,35.5831214 C30.9156071,36.1896058 31.1194374,36.9663064 31.723061,37.3181818 C31.9240305,37.4354736 32.1450254,37.4912587 32.3602988,37.4912587 C32.7958519,37.4912587 33.2206771,37.2652575 33.4581214,36.8626033 L33.9272886,36.0580102 C34.279164,35.4543865 34.0753338,34.677686 33.4717101,34.3229498 L33.4717101,34.3229498 Z" id="Fill-9" fill="#0D65AD"></path>
                    <path d="M42.074857,16.5997298 C40.9763191,15.353862 39.5487921,14.4598697 37.9674984,14.018595 C37.7529402,9.23251748 33.9531151,5.4105213 29.3100763,5.4105213 C27.9547839,5.4105213 26.6474094,5.73235855 25.4601875,6.35243166 C23.6865067,2.63413859 20.0568976,0.23394787 16.0003179,0.23394787 C10.1614749,0.23394787 5.41258741,5.21527336 5.41258741,11.3394787 C5.41258741,12.3228703 5.53560076,13.291958 5.77876669,14.2331532 C2.4960267,15.4539892 0.236013986,18.6137158 0.236013986,22.2125715 C0.236013986,26.9085346 4.0544342,30.7276701 8.75111252,30.7276701 L35.6710108,30.7276701 C40.3676891,30.7276701 44.1868245,26.9085346 44.1868245,22.2125715 C44.1896853,20.1420852 43.4380165,18.1502702 42.074857,16.5997298 Z" id="Fill-1" stroke="#5A5A5A" stroke-width="2.6" fill="#FAFAFA"></path>
                    <rect id="Rectangle-58" fill="#FAFAFA" x="11" y="20" width="22" height="11"></rect>
                    <path d="M24.2011719,19.609375 C24.2011719,19.609375 23.300978,21.2223485 22.1985104,23.1977576 L17.5263672,31.5693359 L25.7636719,29.8330078 L20.0234375,41.5742188" id="Path-198" stroke="#FFD520" stroke-width="2.4"></path>
                </g>
            </g>
        </g>
    </g>
</svg>