<?xml version="1.0" encoding="UTF-8" standalone="no"?>
<svg width="28px" height="25px" viewBox="0 0 28 25" version="1.1" xmlns="http://www.w3.org/2000/svg" xmlns:xlink="http://www.w3.org/1999/xlink" xmlns:sketch="http://www.bohemiancoding.com/sketch/ns">
    <!-- Generator: sketchtool 3.4.4 (395) - http://www.bohemiancoding.com/sketch -->
    <title>Weather_warning_red_ICO</title>
    <desc>Created with sketchtool.</desc>
    <defs></defs>
    <g id="Toolkit-&amp;-Styleguide" stroke="none" stroke-width="1" fill="none" fill-rule="evenodd" sketch:type="MSPage">
        <g id="Global-Style" sketch:type="MSArtboardGroup" transform="translate(-893.000000, -1240.000000)" fill="#ED1C2E">
            <g id="Icons" sketch:type="MSLayerGroup" transform="translate(708.000000, 946.000000)">
                <path d="M211.749524,314.051882 L201.069166,295.558611 L201.066531,295.560117 C200.932514,295.287941 200.758969,295.033459 200.534226,294.80721 C199.456063,293.73093 197.707814,293.73093 196.629652,294.80721 C196.434272,295.002589 196.273903,295.221685 196.151932,295.452828 L196.151932,295.451322 L185.477221,313.94911 L185.477221,313.953251 C185.308193,314.200581 185.174552,314.47991 185.095121,314.787095 C184.699468,316.259028 185.574346,317.775382 187.046279,318.168023 C187.310925,318.23842 187.578584,318.267783 187.843607,318.259125 L209.199806,318.256113 L209.199806,318.253102 C210.223382,318.323875 211.243947,317.828086 211.79244,316.882811 C212.317216,315.971041 212.267148,314.885726 211.749524,314.051882 L211.749524,314.051882 Z M199.845693,314.139972 C199.478274,314.487062 199.047235,314.662113 198.557846,314.662113 C198.059045,314.662113 197.622359,314.487062 197.257576,314.139972 C196.890157,313.790247 196.706448,313.37389 196.706448,312.887135 C196.706448,312.404899 196.890157,311.987412 197.257576,311.629781 C197.620853,311.274033 198.059045,311.098982 198.557846,311.098982 C199.047235,311.098982 199.478274,311.274033 199.845693,311.629781 C200.213488,311.985906 200.398703,312.404899 200.398703,312.887135 C200.398703,313.37389 200.214993,313.788741 199.845693,314.139972 L199.845693,314.139972 Z M200.286896,303.325973 C200.194288,303.759647 200.075329,304.265601 199.934159,304.847974 C199.798636,305.396467 199.641278,306.081612 199.473757,306.905292 C199.2972,307.724078 199.118008,308.740502 198.922253,309.947788 L198.182522,309.947788 C197.990154,308.726949 197.806068,307.710902 197.629888,306.897763 C197.457849,306.087635 197.304633,305.405125 197.169486,304.855127 C197.046009,304.350679 196.935708,303.859784 196.83256,303.374536 C196.729788,302.890793 196.67972,302.529021 196.67972,302.283197 C196.67972,301.794937 196.859288,301.374439 197.226707,301.024714 C197.594502,300.674612 198.032693,300.502573 198.545799,300.502573 C199.051753,300.502573 199.49145,300.674612 199.863386,301.024714 C200.239839,301.374439 200.428066,301.794937 200.428066,302.283197 C200.429572,302.546715 200.379504,302.893428 200.286896,303.325973 L200.286896,303.325973 Z" id="Weather_warning_red_ICO" sketch:type="MSShapeGroup"></path>
            </g>
        </g>
    </g>
</svg>