<?xml version="1.0" encoding="UTF-8" standalone="no"?>
<svg width="45px" height="31px" viewBox="0 0 45 31" version="1.1" xmlns="http://www.w3.org/2000/svg" xmlns:xlink="http://www.w3.org/1999/xlink" xmlns:sketch="http://www.bohemiancoding.com/sketch/ns">
    <!-- Generator: sketchtool 3.4.4 (395) - http://www.bohemiancoding.com/sketch -->
    <title>wind_ico</title>
    <desc>Created with sketchtool.</desc>
    <defs></defs>
    <g id="Toolkit-&amp;-Styleguide" stroke="none" stroke-width="1" fill="none" fill-rule="evenodd" sketch:type="MSPage">
        <g id="Global-Style" sketch:type="MSArtboardGroup" transform="translate(-892.000000, -1436.000000)" fill="#75BDF3">
            <g id="Icons" sketch:type="MSLayerGroup" transform="translate(708.000000, 946.000000)">
                <path d="M203.416292,499.331944 L189.851828,499.331944 C188.991661,499.331944 188.292174,498.633419 188.292174,497.77229 C188.292174,496.912123 188.991661,496.212636 189.851828,496.212636 L203.416292,496.212636 C204.276459,496.212636 204.975946,496.912123 204.975946,497.77229 C204.975946,498.633419 204.276459,499.331944 203.416292,499.331944 Z M221.914689,504.176395 L185.559654,504.176395 C184.699487,504.176395 184,503.47787 184,502.616742 C184,501.756575 184.699487,501.057088 185.559654,501.057088 L221.911802,501.057088 C224.098781,501.057088 225.879731,499.276139 225.879731,497.088198 C225.879731,494.901219 224.098781,493.119307 221.911802,493.119307 C219.723861,493.119307 217.94195,494.89737 217.94195,497.088198 C217.94195,497.949326 217.243425,498.647851 216.382296,498.647851 C215.52213,498.647851 214.822643,497.949326 214.822643,497.088198 C214.822643,493.179923 218.002566,490 221.911802,490 C225.820077,490 229,493.179923 229,497.088198 C229,500.997434 225.820077,504.176395 221.914689,504.176395 Z M211.97755,520.266517 C208.069275,520.266517 204.889352,517.086594 204.889352,513.178319 C204.889352,512.317191 205.588839,511.618666 206.449006,511.618666 C207.310135,511.618666 208.008659,512.317191 208.008659,513.178319 C208.008659,515.365298 209.790571,517.143361 211.97755,517.143361 C214.165491,517.143361 215.94644,515.365298 215.94644,513.178319 C215.94644,510.990378 214.165491,509.209429 211.97755,509.209429 L192.554522,509.209429 C191.693393,509.209429 190.994869,508.509942 190.994869,507.649775 C190.994869,506.788647 191.693393,506.090122 192.554522,506.090122 L211.973701,506.090122 C215.882938,506.090122 219.062861,509.269083 219.062861,513.178319 C219.062861,517.086594 215.882938,520.266517 211.97755,520.266517 Z" id="wind_ico" sketch:type="MSShapeGroup"></path>
            </g>
        </g>
    </g>
</svg>