<?xml version="1.0" encoding="UTF-8" standalone="no"?>
<svg width="50px" height="40px" viewBox="0 0 50 40" version="1.1" xmlns="http://www.w3.org/2000/svg" xmlns:xlink="http://www.w3.org/1999/xlink" xmlns:sketch="http://www.bohemiancoding.com/sketch/ns">
    <!-- Generator: sketchtool 3.4.4 (395) - http://www.bohemiancoding.com/sketch -->
    <title>weather_icon</title>
    <desc>Created with sketchtool.</desc>
    <defs></defs>
    <g id="Toolkit-&amp;-Styleguide" stroke="none" stroke-width="1" fill="none" fill-rule="evenodd" sketch:type="MSPage">
        <g id="Global-Style" sketch:type="MSArtboardGroup" transform="translate(-829.000000, -1040.000000)" fill="#FFFFFF">
            <g id="Icons" sketch:type="MSLayerGroup" transform="translate(708.000000, 946.000000)">
                <g id="Weather_ICO" transform="translate(121.000000, 94.000000)" sketch:type="MSShapeGroup">
                    <path d="M28.9223164,15.7655367 C29.799435,15.7655367 30.5112994,15.0536723 30.5112994,14.1765537 C30.5112994,11.549435 32.6511299,9.40960452 35.2782486,9.40960452 C37.9039548,9.40960452 40.0451977,11.549435 40.0451977,14.1765537 C40.0451977,15.8757062 39.1285311,17.4533898 37.6610169,18.3079096 C36.8997175,18.75 36.6398305,19.720339 37.0819209,20.4774011 C37.3742938,20.9844633 37.9096045,21.2711864 38.460452,21.2711864 C38.7316384,21.2711864 39.0070621,21.2048023 39.2556497,21.0564972 C41.7048023,19.6384181 43.2274011,17.0014124 43.2274011,14.1765537 C43.2274011,9.79519774 39.6638418,6.23163842 35.2824859,6.23163842 C30.9025424,6.23163842 27.3375706,9.79519774 27.3375706,14.1765537 C27.3333333,15.0536723 28.0437853,15.7655367 28.9223164,15.7655367 L28.9223164,15.7655367 Z" id="Fill-1"></path>
                    <path d="M32.1045198,3.95762712 C32.2316384,4.74152542 32.9053672,5.29943503 33.6723164,5.29943503 C33.7542373,5.29943503 33.8375706,5.29378531 33.9265537,5.27683616 C34.7923729,5.13841808 35.3827684,4.3220339 35.2443503,3.45621469 L34.9138418,1.36440678 C34.7754237,0.498587571 33.9533898,-0.0918079096 33.0932203,0.0466101695 C32.2259887,0.183615819 31.6355932,1.00141243 31.7740113,1.86723164 L32.1045198,3.95762712 Z" id="Fill-2"></path>
                    <path d="M49.4675141,11.9194915 C49.3305085,11.0536723 48.5240113,10.4632768 47.6468927,10.6002825 L45.5564972,10.9322034 C44.690678,11.0706215 44.1002825,11.8870056 44.2372881,12.7528249 C44.3644068,13.5367232 45.0381356,14.0932203 45.8050847,14.0932203 C45.8870056,14.0932203 45.970339,14.0875706 46.0579096,14.0706215 L48.1497175,13.740113 C49.0155367,13.6016949 49.6059322,12.7853107 49.4675141,11.9194915 L49.4675141,11.9194915 Z" id="Fill-3"></path>
                    <path d="M40.6299435,6.88276836 C40.9110169,7.08615819 41.2358757,7.18644068 41.5621469,7.18644068 C42.0522599,7.18644068 42.5381356,6.95903955 42.8474576,6.52966102 L44.0889831,4.81355932 C44.6016949,4.10169492 44.4477401,3.10875706 43.7358757,2.5960452 C43.0240113,2.0819209 42.0310734,2.23728814 41.5183616,2.94915254 L40.2768362,4.66384181 C39.7570621,5.3700565 39.9180791,6.36299435 40.6299435,6.88276836 L40.6299435,6.88276836 Z" id="Fill-4"></path>
                    <path d="M24.1214689,7.99717514 L25.8375706,9.23870056 C26.1186441,9.4420904 26.4449153,9.54096045 26.769774,9.54096045 C27.2612994,9.54096045 27.7471751,9.31497175 28.0550847,8.88559322 C28.569209,8.17372881 28.4138418,7.18079096 27.7019774,6.66666667 L25.9858757,5.42514124 C25.2754237,4.91242938 24.2810734,5.06779661 23.7683616,5.77824859 C23.25,6.48446328 23.4096045,7.47881356 24.1214689,7.99717514 L24.1214689,7.99717514 Z" id="Fill-5"></path>
                    <path d="M46.5663842,20.3446328 L44.8502825,19.1031073 C44.1384181,18.5903955 43.1454802,18.7443503 42.6327684,19.4562147 C42.1186441,20.1680791 42.2740113,21.1610169 42.9858757,21.6737288 L44.700565,22.9152542 C44.9830508,23.1200565 45.3079096,23.2189266 45.6341808,23.2189266 C46.1242938,23.2189266 46.6101695,22.9929379 46.9194915,22.5621469 C47.4378531,21.8502825 47.2782486,20.8573446 46.5663842,20.3446328 L46.5663842,20.3446328 Z" id="Fill-6"></path>
                    <path d="M37.4788136,23.930791 C36.4138418,19.7048023 32.6341808,16.6483051 28.2485876,16.6483051 C27.9731638,16.6483051 27.6751412,16.6483051 27.3658192,16.6638418 C25.059322,13.5974576 21.4957627,11.7923729 17.6553672,11.7923729 C11.0451977,11.7923729 5.6440678,17.0833333 5.47881356,23.6497175 C2.36158192,24.5649718 0.176553672,28.0635593 0.176553672,31.2358757 C0.176553672,34.9265537 3.12288136,39.0536723 7.06214689,39.0536723 L36.7231638,39.0536723 C40.6624294,39.0536723 43.6087571,34.9265537 43.6087571,31.2358757 C43.6087571,27.5889831 40.8220339,24.3615819 37.4788136,23.930791 L37.4788136,23.930791 Z M36.7231638,35.8757062 L7.06214689,35.8757062 C5.06497175,35.8757062 3.35451977,33.3262712 3.35451977,31.2358757 C3.35451977,29.1836158 5.00988701,26.6779661 6.96892655,26.6016949 C7.00706215,26.6073446 7.03954802,26.6073446 7.07344633,26.6073446 C7.55367232,26.6228814 7.97316384,26.4350282 8.28107345,26.0988701 C8.59039548,25.7627119 8.74435028,25.3107345 8.70056497,24.8573446 C8.67372881,24.559322 8.65677966,24.2612994 8.65677966,23.9576271 C8.65677966,19.0042373 12.6949153,14.970339 17.6610169,14.970339 C20.7457627,14.970339 23.5861582,16.5536723 25.269774,19.2019774 C25.6228814,19.7655367 26.289548,20.0409605 26.940678,19.9081921 C27.3220339,19.8262712 27.7740113,19.8262712 28.259887,19.8262712 C31.4435028,19.8262712 34.1525424,22.2641243 34.5607345,25.4971751 C34.6483051,26.2090395 35.1949153,26.75 35.8686441,26.8658192 C36.049435,26.9491525 36.3587571,27.059322 36.7344633,27.059322 C38.6765537,27.059322 40.4420904,29.0508475 40.4420904,31.230226 C40.430791,33.3206215 38.720339,35.8757062 36.7231638,35.8757062 L36.7231638,35.8757062 Z" id="Fill-7"></path>
                </g>
            </g>
        </g>
    </g>
</svg>