<?xml version="1.0" encoding="UTF-8" standalone="no"?>
<svg width="40px" height="45px" viewBox="0 0 40 45" version="1.1" xmlns="http://www.w3.org/2000/svg" xmlns:xlink="http://www.w3.org/1999/xlink" xmlns:sketch="http://www.bohemiancoding.com/sketch/ns">
    <!-- Generator: sketchtool 3.4.4 (395) - http://www.bohemiancoding.com/sketch -->
    <title>frost_ico</title>
    <desc>Created with sketchtool.</desc>
    <defs></defs>
    <g id="Toolkit-&amp;-Styleguide" stroke="none" stroke-width="1" fill="none" fill-rule="evenodd" sketch:type="MSPage">
        <g id="Global-Style" sketch:type="MSArtboardGroup" transform="translate(-975.000000, -1429.000000)" fill="#B3C8DA">
            <g id="Icons" sketch:type="MSLayerGroup" transform="translate(708.000000, 946.000000)">
                <path d="M285.293617,484.348167 L285.262259,490.243516 L281.008881,487.303181 C280.782034,487.13905 280.508484,487.045643 280.226927,487.037636 C278.848499,487.026961 278.290723,488.80971 279.429627,489.586327 L285.230901,493.620864 L285.168851,502.846858 L277.209197,498.327936 L276.630738,491.275002 C276.578696,490.545756 275.97088,489.977304 275.238966,489.977304 C274.412309,489.974636 273.766463,490.689203 273.847194,491.509855 L274.269529,496.654607 L269.108764,493.714939 C267.547524,492.993033 266.304537,495.14274 267.701647,496.122851 L272.846399,499.141248 L268.170686,501.345666 C267.414752,501.637898 267.065808,502.510591 267.412083,503.243173 C267.759025,503.975754 268.653069,504.259313 269.358963,503.863665 L275.754709,500.845268 L283.651647,505.474278 L275.754709,510.118633 L269.358963,507.100236 C269.150797,506.993484 268.921282,506.938774 268.686429,506.944112 C267.19858,506.988147 266.804934,509.021095 268.170686,509.618235 L272.830386,511.822653 L267.716992,514.825037 C267.031781,515.208675 266.802266,516.063354 267.185236,516.733219 C267.568874,517.403084 268.423553,517.631933 269.093419,517.248962 L274.269529,514.309294 L273.847194,519.454047 C273.781808,520.225326 274.355597,520.903197 275.129545,520.963245 C275.900825,521.025294 276.576027,520.444166 276.630738,519.672887 L277.209197,512.635965 L285.168851,508.117043 L285.230901,517.28032 L279.429627,521.298845 C278.702383,521.697828 278.480874,522.635907 278.952581,523.316447 C279.424289,523.998989 280.381049,524.121753 281.008881,523.581991 L285.262259,520.658336 L285.293617,526.584376 C285.293617,528.466537 288.092507,528.466537 288.092507,526.600388 L288.139878,520.658336 L292.377243,523.581991 C293.005742,524.121753 293.961834,523.998989 294.433542,523.316447 C294.90525,522.635907 294.683741,521.697828 293.956497,521.298845 L288.155223,517.28032 L288.21794,508.117043 L296.177594,512.635965 L296.756053,519.672887 C296.912177,521.515684 299.672369,521.298845 299.539597,519.454047 L299.117262,514.309294 L304.199298,517.202258 C305.908655,518.177032 307.300427,515.753107 305.685144,514.825037 L300.555738,511.822653 L305.215438,509.618235 C306.60254,509.010419 306.16686,506.941443 304.652991,506.944112 C304.434151,506.946781 304.219981,507.001491 304.027161,507.100236 L297.631415,510.10262 L289.734477,505.474278 L297.662774,500.829923 L304.058519,503.847653 C304.76508,504.243967 305.659124,503.959742 306.005399,503.22716 C306.352341,502.495245 306.00273,501.621885 305.246796,501.33032 L300.587096,499.125236 L305.669132,496.138864 C306.362349,495.716529 306.565844,494.830492 306.138171,494.167966 C305.737186,493.555479 304.93188,493.359991 304.293373,493.714939 L299.14862,496.623249 L299.570288,491.494509 C299.654355,490.652507 298.976483,489.930601 298.131813,489.961959 C297.417912,489.985311 296.836784,490.545756 296.787412,491.259656 L296.208285,498.296578 L288.21794,502.846858 L288.155223,493.620864 L293.956497,489.586327 C295.11942,488.797034 294.516942,486.977589 293.112493,487.037636 C292.846282,487.052982 292.591413,487.147057 292.377243,487.303181 L288.139878,490.243516 L288.092507,484.441575 C288.066486,483.560875 287.393952,482.951058 286.607327,483.003099 C285.888089,483.044465 285.319638,483.628929 285.293617,484.348167 Z" id="frost_ico" sketch:type="MSShapeGroup"></path>
            </g>
        </g>
    </g>
</svg>