<?xml version="1.0" encoding="UTF-8" standalone="no"?>
<svg width="47px" height="33px" viewBox="0 0 47 33" version="1.1" xmlns="http://www.w3.org/2000/svg" xmlns:xlink="http://www.w3.org/1999/xlink" xmlns:sketch="http://www.bohemiancoding.com/sketch/ns">
    <!-- Generator: sketchtool 3.4.4 (395) - http://www.bohemiancoding.com/sketch -->
    <title>cloudy_ico</title>
    <desc>Created with sketchtool.</desc>
    <defs></defs>
    <g id="Toolkit-&amp;-Styleguide" stroke="none" stroke-width="1" fill="none" fill-rule="evenodd" sketch:type="MSPage">
        <g id="Global-Style" sketch:type="MSArtboardGroup" transform="translate(-971.000000, -1366.000000)" fill="#5A5A5A">
            <g id="Icons" sketch:type="MSLayerGroup" transform="translate(708.000000, 946.000000)">
                <path d="M307.318182,437.335606 C306.154545,436.015909 304.642424,435.068939 302.967424,434.601515 C302.740152,429.531818 298.715152,425.483333 293.79697,425.483333 C292.361364,425.483333 290.976515,425.824242 289.718939,426.481061 C287.840152,422.542424 283.995455,420 279.698485,420 C273.513636,420 268.483333,425.276515 268.483333,431.763636 C268.483333,432.805303 268.613636,433.831818 268.871212,434.828788 C265.393939,436.12197 263,439.468939 263,443.281061 C263,448.255303 267.044697,452.300758 272.019697,452.300758 L300.534848,452.300758 C305.509848,452.300758 309.555303,448.255303 309.555303,443.281061 C309.558333,441.087879 308.762121,438.97803 307.318182,437.335606 L307.318182,437.335606 Z M300.537879,449.610606 L272.022727,449.610606 C268.530303,449.610606 265.689394,446.769697 265.689394,443.27803 C265.689394,440.244697 267.85303,437.628788 270.832576,437.060606 C271.226515,436.986364 271.563636,436.740909 271.759091,436.388636 C271.951515,436.039394 271.97803,435.62197 271.833333,435.249242 C271.397727,434.136364 271.175758,432.962121 271.175758,431.760606 C271.175758,426.756061 275.002273,422.684091 279.701515,422.684091 C283.377273,422.684091 286.629545,425.181818 287.789394,428.898485 C287.922727,429.32197 288.253788,429.65303 288.677273,429.780303 C289.100758,429.910606 289.562121,429.825 289.908333,429.54697 C291.044697,428.643939 292.387879,428.165152 293.8,428.165152 C297.380303,428.165152 300.295455,431.251515 300.295455,435.047727 C300.295455,435.210606 300.283333,435.391667 300.268939,435.583333 C300.218182,436.290909 300.721212,436.915152 301.422727,437.012879 C304.533333,437.445455 306.877273,440.137879 306.877273,443.275 C306.871212,446.769697 304.030303,449.610606 300.537879,449.610606 L300.537879,449.610606 Z" id="cloudy_ico" sketch:type="MSShapeGroup"></path>
            </g>
        </g>
    </g>
</svg>