<?xml version="1.0" encoding="UTF-8" standalone="no"?>
<svg width="45px" height="42px" viewBox="0 0 45 42" version="1.1" xmlns="http://www.w3.org/2000/svg" xmlns:xlink="http://www.w3.org/1999/xlink" xmlns:sketch="http://www.bohemiancoding.com/sketch/ns">
    <!-- Generator: sketchtool 3.4.4 (395) - http://www.bohemiancoding.com/sketch -->
    <title>lightrain_ico</title>
    <desc>Created with sketchtool.</desc>
    <defs></defs>
    <g id="Toolkit-&amp;-Styleguide" stroke="none" stroke-width="1" fill="none" fill-rule="evenodd" sketch:type="MSPage">
        <g id="Global-Style" sketch:type="MSArtboardGroup" transform="translate(-969.000000, -1501.000000)">
            <g id="Icons" sketch:type="MSLayerGroup" transform="translate(708.000000, 946.000000)">
                <g id="lightrain_ico" transform="translate(261.000000, 555.000000)" sketch:type="MSShapeGroup">
                    <path d="M21.4636364,35.9034965 C21.0194056,35.6433566 20.4498252,35.7949301 20.1917832,36.2375874 L19.8472028,36.8276224 C19.5891608,37.2723776 19.7386364,37.841958 20.1812937,38.1 C20.3286713,38.186014 20.4907343,38.2269231 20.6486014,38.2269231 C20.968007,38.2269231 21.2795455,38.0611888 21.4536713,37.7659091 L21.7977273,37.1758741 C22.0557692,36.7332168 21.9062937,36.1636364 21.4636364,35.9034965 L21.4636364,35.9034965 Z" id="Fill-2" fill="#0D65AD"></path>
                    <path d="M27.0461538,39.118007 C26.6019231,38.8578671 26.0323427,39.0094406 25.7737762,39.4520979 L25.4297203,40.0421329 C25.1716783,40.4868881 25.3211538,41.0559441 25.7638112,41.3145105 C25.9111888,41.4005245 26.0732517,41.4414336 26.2311189,41.4414336 C26.5505245,41.4414336 26.8620629,41.2751748 27.0361888,40.9804196 L27.3802448,40.3903846 C27.6403846,39.9456294 27.4909091,39.376049 27.0461538,39.118007 L27.0461538,39.118007 Z" id="Fill-6" fill="#0D65AD"></path>
                    <path d="M33.6125874,35.9034965 C33.1683566,35.6433566 32.5987762,35.7949301 32.3407343,36.2375874 L31.9961538,36.8276224 C31.7381119,37.2723776 31.8875874,37.841958 32.3302448,38.1 C32.4776224,38.186014 32.6396853,38.2269231 32.7975524,38.2269231 C33.116958,38.2269231 33.4284965,38.0611888 33.6026224,37.7659091 L33.9466783,37.1758741 C34.2047203,36.7332168 34.0552448,36.1636364 33.6125874,35.9034965 L33.6125874,35.9034965 Z" id="Fill-9" fill="#0D65AD"></path>
                    <path d="M15.5769231,22.5596817 C19.4333942,22.5596817 22.5596817,19.4333942 22.5596817,15.5769231 C22.5596817,11.720452 19.4333942,8.59416446 15.5769231,8.59416446 C11.720452,8.59416446 8.59416446,11.720452 8.59416446,15.5769231 C8.59416446,19.4333942 11.720452,22.5596817 15.5769231,22.5596817 Z" id="Oval-7" stroke="#FFD520" stroke-width="3"></path>
                    <path d="M16.573309,4.51301061 L16.573309,1.3428382 C16.573309,-0.0209482759 14.4586074,-0.0209482759 14.4586074,1.3428382 L14.4586074,4.51301061 C14.4586074,5.87894562 16.573309,5.87894562 16.573309,4.51301061 L16.573309,4.51301061 Z" id="Fill-20" fill="#FFD520"></path>
                    <path d="M4.39376658,14.5805371 L1.22090849,14.5805371 C-0.142877984,14.5805371 -0.142877984,16.6952387 1.22090849,16.6952387 L4.39376658,16.6952387 C5.75755305,16.6952387 5.75755305,14.5805371 4.39376658,14.5805371 L4.39376658,14.5805371 Z" id="Fill-22" fill="#FFD520"></path>
                    <path d="M24.2194297,8.4303382 C24.9660477,7.68372016 25.7153515,6.93441645 26.4625066,6.18779841 C27.4272016,5.22256631 25.9312798,3.72664456 24.9660477,4.69133952 C24.2194297,5.43849469 23.470126,6.18779841 22.723508,6.93441645 C21.7582759,7.89964854 23.2541976,9.39557029 24.2194297,8.4303382 L24.2194297,8.4303382 Z" id="Fill-24" fill="#FFD520"></path>
                    <path d="M6.06801724,26.5817507 C6.81517241,25.8351326 7.56179045,25.0858289 8.30894562,24.3408223 C9.27417772,23.3761273 7.77771883,21.8796684 6.81302387,22.8449005 C6.0658687,23.5920557 5.31871353,24.3408223 4.57209549,25.0858289 C3.6068634,26.0532095 5.1006366,27.5469828 6.06801724,26.5817507 L6.06801724,26.5817507 Z" id="Fill-25" fill="#FFD520"></path>
                    <path d="M8.30894562,6.93441645 C7.56179045,6.18779841 6.81302387,5.43849469 6.06801724,4.69133952 C5.10278515,3.72664456 3.6068634,5.22256631 4.57209549,6.18779841 C5.31871353,6.93441645 6.06801724,7.68372016 6.81302387,8.4303382 C7.77771883,9.39557029 9.27417772,7.89964854 8.30894562,6.93441645 L8.30894562,6.93441645 Z" id="Fill-26" fill="#FFD520"></path>
                    <path d="M42.8548951,22.9064685 C42.0493007,21.9928322 41.0024476,21.3372378 39.8428322,21.0136364 C39.6854895,17.5038462 36.898951,14.701049 33.4940559,14.701049 C32.5001748,14.701049 31.5414336,14.9370629 30.6708042,15.3917832 C29.3701049,12.665035 26.7083916,10.9048951 23.7335664,10.9048951 C19.4517483,10.9048951 15.9692308,14.5578671 15.9692308,19.048951 C15.9692308,19.7701049 16.0594406,20.4807692 16.2377622,21.170979 C13.8304196,22.0662587 12.1730769,24.3833916 12.1730769,27.0225524 C12.1730769,30.4662587 14.9732517,33.266958 18.4174825,33.266958 L38.1587413,33.266958 C41.602972,33.266958 44.4036713,30.4662587 44.4036713,27.0225524 C44.4057692,25.5041958 43.8545455,24.0435315 42.8548951,22.9064685 Z" id="Fill-1" stroke="#5A5A5A" stroke-width="2.6" fill="#FAFAFA"></path>
                </g>
            </g>
        </g>
    </g>
</svg>