<?xml version="1.0" encoding="UTF-8" standalone="no"?>
<svg width="61px" height="40px" viewBox="0 0 61 40" version="1.1" xmlns="http://www.w3.org/2000/svg" xmlns:xlink="http://www.w3.org/1999/xlink" xmlns:sketch="http://www.bohemiancoding.com/sketch/ns">
    <!-- Generator: Sketch 3.4.1 (15681) - http://www.bohemiancoding.com/sketch -->
    <title>weather_alert_icon</title>
    <desc>Created with Sketch.</desc>
    <defs></defs>
    <g id="Toolkit-&amp;-Styleguide" stroke="none" stroke-width="1" fill="none" fill-rule="evenodd" sketch:type="MSPage">
        <g id="Global-Style" sketch:type="MSArtboardGroup" transform="translate(-1043.000000, -1040.000000)">
            <g id="Icons" sketch:type="MSLayerGroup" transform="translate(708.000000, 946.000000)">
                <g id="Weather_Alert_ICO" transform="translate(335.000000, 94.000000)" sketch:type="MSShapeGroup">
                    <path d="M39.9223164,15.7655367 C40.799435,15.7655367 41.5112994,15.0536723 41.5112994,14.1765537 C41.5112994,11.549435 43.6511299,9.40960452 46.2782486,9.40960452 C48.9039548,9.40960452 51.0451977,11.549435 51.0451977,14.1765537 C51.0451977,15.8757062 50.1285311,17.4533898 48.6610169,18.3079096 C47.8997175,18.75 47.6398305,19.720339 48.0819209,20.4774011 C48.3742938,20.9844633 48.9096045,21.2711864 49.460452,21.2711864 C49.7316384,21.2711864 50.0070621,21.2048023 50.2556497,21.0564972 C52.7048023,19.6384181 54.2274011,17.0014124 54.2274011,14.1765537 C54.2274011,9.79519774 50.6638418,6.23163842 46.2824859,6.23163842 C41.9025424,6.23163842 38.3375706,9.79519774 38.3375706,14.1765537 C38.3333333,15.0536723 39.0437853,15.7655367 39.9223164,15.7655367 L39.9223164,15.7655367 Z" id="Fill-1" fill="#FFFFFF"></path>
                    <path d="M43.1045198,3.95762712 C43.2316384,4.74152542 43.9053672,5.29943503 44.6723164,5.29943503 C44.7542373,5.29943503 44.8375706,5.29378531 44.9265537,5.27683616 C45.7923729,5.13841808 46.3827684,4.3220339 46.2443503,3.45621469 L45.9138418,1.36440678 C45.7754237,0.498587571 44.9533898,-0.0918079096 44.0932203,0.0466101695 C43.2259887,0.183615819 42.6355932,1.00141243 42.7740113,1.86723164 L43.1045198,3.95762712 Z" id="Fill-2" fill="#FFFFFF"></path>
                    <path d="M60.4675141,11.9194915 C60.3305085,11.0536723 59.5240113,10.4632768 58.6468927,10.6002825 L56.5564972,10.9322034 C55.690678,11.0706215 55.1002825,11.8870056 55.2372881,12.7528249 C55.3644068,13.5367232 56.0381356,14.0932203 56.8050847,14.0932203 C56.8870056,14.0932203 56.970339,14.0875706 57.0579096,14.0706215 L59.1497175,13.740113 C60.0155367,13.6016949 60.6059322,12.7853107 60.4675141,11.9194915 L60.4675141,11.9194915 Z" id="Fill-3" fill="#FFFFFF"></path>
                    <path d="M51.6299435,6.88276836 C51.9110169,7.08615819 52.2358757,7.18644068 52.5621469,7.18644068 C53.0522599,7.18644068 53.5381356,6.95903955 53.8474576,6.52966102 L55.0889831,4.81355932 C55.6016949,4.10169492 55.4477401,3.10875706 54.7358757,2.5960452 C54.0240113,2.0819209 53.0310734,2.23728814 52.5183616,2.94915254 L51.2768362,4.66384181 C50.7570621,5.3700565 50.9180791,6.36299435 51.6299435,6.88276836 L51.6299435,6.88276836 Z" id="Fill-4" fill="#FFFFFF"></path>
                    <path d="M35.1214689,7.99717514 L36.8375706,9.23870056 C37.1186441,9.4420904 37.4449153,9.54096045 37.769774,9.54096045 C38.2612994,9.54096045 38.7471751,9.31497175 39.0550847,8.88559322 C39.569209,8.17372881 39.4138418,7.18079096 38.7019774,6.66666667 L36.9858757,5.42514124 C36.2754237,4.91242938 35.2810734,5.06779661 34.7683616,5.77824859 C34.25,6.48446328 34.4096045,7.47881356 35.1214689,7.99717514 L35.1214689,7.99717514 Z" id="Fill-5" fill="#FFFFFF"></path>
                    <path d="M57.5663842,20.3446328 L55.8502825,19.1031073 C55.1384181,18.5903955 54.1454802,18.7443503 53.6327684,19.4562147 C53.1186441,20.1680791 53.2740113,21.1610169 53.9858757,21.6737288 L55.700565,22.9152542 C55.9830508,23.1200565 56.3079096,23.2189266 56.6341808,23.2189266 C57.1242938,23.2189266 57.6101695,22.9929379 57.9194915,22.5621469 C58.4378531,21.8502825 58.2782486,20.8573446 57.5663842,20.3446328 L57.5663842,20.3446328 Z" id="Fill-6" fill="#FFFFFF"></path>
                    <path d="M48.4788136,23.930791 C47.4138418,19.7048023 43.6341808,16.6483051 39.2485876,16.6483051 C38.9731638,16.6483051 38.6751412,16.6483051 38.3658192,16.6638418 C36.059322,13.5974576 32.4957627,11.7923729 28.6553672,11.7923729 C22.0451977,11.7923729 16.6440678,17.0833333 16.4788136,23.6497175 C13.3615819,24.5649718 11.1765537,28.0635593 11.1765537,31.2358757 C11.1765537,34.9265537 14.1228814,39.0536723 18.0621469,39.0536723 L47.7231638,39.0536723 C51.6624294,39.0536723 54.6087571,34.9265537 54.6087571,31.2358757 C54.6087571,27.5889831 51.8220339,24.3615819 48.4788136,23.930791 L48.4788136,23.930791 Z M47.7231638,35.8757062 L18.0621469,35.8757062 C16.0649718,35.8757062 14.3545198,33.3262712 14.3545198,31.2358757 C14.3545198,29.1836158 16.009887,26.6779661 17.9689266,26.6016949 C18.0070621,26.6073446 18.039548,26.6073446 18.0734463,26.6073446 C18.5536723,26.6228814 18.9731638,26.4350282 19.2810734,26.0988701 C19.5903955,25.7627119 19.7443503,25.3107345 19.700565,24.8573446 C19.6737288,24.559322 19.6567797,24.2612994 19.6567797,23.9576271 C19.6567797,19.0042373 23.6949153,14.970339 28.6610169,14.970339 C31.7457627,14.970339 34.5861582,16.5536723 36.269774,19.2019774 C36.6228814,19.7655367 37.289548,20.0409605 37.940678,19.9081921 C38.3220339,19.8262712 38.7740113,19.8262712 39.259887,19.8262712 C42.4435028,19.8262712 45.1525424,22.2641243 45.5607345,25.4971751 C45.6483051,26.2090395 46.1949153,26.75 46.8686441,26.8658192 C47.049435,26.9491525 47.3587571,27.059322 47.7344633,27.059322 C49.6765537,27.059322 51.4420904,29.0508475 51.4420904,31.230226 C51.430791,33.3206215 49.720339,35.8757062 47.7231638,35.8757062 L47.7231638,35.8757062 Z" id="Fill-7" fill="#FFFFFF"></path>
                    <path d="M26.7495242,23.0518821 L16.0691661,4.558611 L16.0665309,4.56011682 C15.9325135,4.28794104 15.7589685,4.03345857 15.5342259,3.80721011 C14.4560634,2.73092996 12.7078141,2.73092996 11.6296516,3.80721011 C11.4342724,4.0025894 11.2739032,4.22168525 11.1519323,4.45282761 L11.1519323,4.4513218 L0.477220996,22.9491103 L0.477220996,22.9532513 C0.30819344,23.2005812 0.174552499,23.4799096 0.0951208407,23.7870955 C-0.300531636,25.2590281 0.574345962,26.7753822 2.04627858,27.1680231 C2.31092529,27.2384199 2.57858363,27.2677832 2.84360679,27.2591248 L24.1998056,27.2561132 L24.1998056,27.2531015 C25.2233823,27.3238748 26.2439474,26.8280857 26.7924399,25.8828113 C27.3172159,24.9710413 27.2671476,23.8857263 26.7495242,23.0518821 L26.7495242,23.0518821 Z M14.8456927,23.1399722 C14.4782742,23.4870622 14.0472351,23.662113 13.5578457,23.662113 C13.059045,23.662113 12.6223591,23.4870622 12.2575758,23.1399722 C11.8901574,22.790247 11.7064481,22.3738896 11.7064481,21.8871354 C11.7064481,21.4048987 11.8901574,20.9874119 12.2575758,20.6297812 C12.6208533,20.2740328 13.059045,20.098982 13.5578457,20.098982 C14.0472351,20.098982 14.4782742,20.2740328 14.8456927,20.6297812 C15.2134876,20.9859061 15.3987026,21.4048987 15.3987026,21.8871354 C15.3987026,22.3738896 15.2149934,22.7887412 14.8456927,23.1399722 L14.8456927,23.1399722 Z M15.286896,12.3259731 C15.1942885,12.7596474 15.0753292,13.2656007 14.9341592,13.847974 C14.798636,14.3964665 14.6412785,15.0816116 14.4737567,15.9052916 C14.2972001,16.7240776 14.1180083,17.7405017 13.9222526,18.9477876 L13.1825217,18.9477876 C12.9901541,17.7269494 12.8060684,16.7109018 12.6298882,15.8977625 C12.457849,15.0876349 12.3046325,14.405125 12.1694858,13.8551266 C12.0460091,13.3506791 11.9357082,12.8597839 11.83256,12.3745356 C11.7297882,11.890793 11.6797199,11.5290213 11.6797199,11.2831973 C11.6797199,10.7949373 11.8592882,10.3744389 12.2267067,10.0247137 C12.5945016,9.6746121 13.0326933,9.50257292 13.5457992,9.50257292 C14.0517525,9.50257292 14.4914501,9.6746121 14.863386,10.0247137 C15.2398393,10.3744389 15.428066,10.7949373 15.428066,11.2831973 C15.4295718,11.5467146 15.3795035,11.8934282 15.286896,12.3259731 L15.286896,12.3259731 Z" id="Weather_warning_ICO" fill="#FFD520"></path>
                </g>
            </g>
        </g>
    </g>
</svg>