<?xml version="1.0" encoding="UTF-8" standalone="no"?>
<svg width="45px" height="34px" viewBox="0 0 45 34" version="1.1" xmlns="http://www.w3.org/2000/svg" xmlns:xlink="http://www.w3.org/1999/xlink" xmlns:sketch="http://www.bohemiancoding.com/sketch/ns">
    <!-- Generator: sketchtool 3.4.4 (395) - http://www.bohemiancoding.com/sketch -->
    <title>partcloudy_ico</title>
    <desc>Created with sketchtool.</desc>
    <defs></defs>
    <g id="Toolkit-&amp;-Styleguide" stroke="none" stroke-width="1" fill="none" fill-rule="evenodd" sketch:type="MSPage">
        <g id="Global-Style" sketch:type="MSArtboardGroup" transform="translate(-969.000000, -1571.000000)">
            <g id="Icons" sketch:type="MSLayerGroup" transform="translate(708.000000, 946.000000)">
                <g id="partcloudy_ico" transform="translate(261.000000, 625.000000)" sketch:type="MSShapeGroup">
                    <path d="M15.5769231,22.5596817 C19.4333942,22.5596817 22.5596817,19.4333942 22.5596817,15.5769231 C22.5596817,11.720452 19.4333942,8.59416446 15.5769231,8.59416446 C11.720452,8.59416446 8.59416446,11.720452 8.59416446,15.5769231 C8.59416446,19.4333942 11.720452,22.5596817 15.5769231,22.5596817 Z" id="Oval-7" stroke="#FFD520" stroke-width="3"></path>
                    <path d="M16.573309,4.51301061 L16.573309,1.3428382 C16.573309,-0.0209482759 14.4586074,-0.0209482759 14.4586074,1.3428382 L14.4586074,4.51301061 C14.4586074,5.87894562 16.573309,5.87894562 16.573309,4.51301061 L16.573309,4.51301061 Z" id="Fill-20" fill="#FFD520"></path>
                    <path d="M4.39376658,14.5805371 L1.22090849,14.5805371 C-0.142877984,14.5805371 -0.142877984,16.6952387 1.22090849,16.6952387 L4.39376658,16.6952387 C5.75755305,16.6952387 5.75755305,14.5805371 4.39376658,14.5805371 L4.39376658,14.5805371 Z" id="Fill-22" fill="#FFD520"></path>
                    <path d="M24.2194297,8.4303382 C24.9660477,7.68372016 25.7153515,6.93441645 26.4625066,6.18779841 C27.4272016,5.22256631 25.9312798,3.72664456 24.9660477,4.69133952 C24.2194297,5.43849469 23.470126,6.18779841 22.723508,6.93441645 C21.7582759,7.89964854 23.2541976,9.39557029 24.2194297,8.4303382 L24.2194297,8.4303382 Z" id="Fill-24" fill="#FFD520"></path>
                    <path d="M6.06801724,26.5817507 C6.81517241,25.8351326 7.56179045,25.0858289 8.30894562,24.3408223 C9.27417772,23.3761273 7.77771883,21.8796684 6.81302387,22.8449005 C6.0658687,23.5920557 5.31871353,24.3408223 4.57209549,25.0858289 C3.6068634,26.0532095 5.1006366,27.5469828 6.06801724,26.5817507 L6.06801724,26.5817507 Z" id="Fill-25" fill="#FFD520"></path>
                    <path d="M8.30894562,6.93441645 C7.56179045,6.18779841 6.81302387,5.43849469 6.06801724,4.69133952 C5.10278515,3.72664456 3.6068634,5.22256631 4.57209549,6.18779841 C5.31871353,6.93441645 6.06801724,7.68372016 6.81302387,8.4303382 C7.77771883,9.39557029 9.27417772,7.89964854 8.30894562,6.93441645 L8.30894562,6.93441645 Z" id="Fill-26" fill="#FFD520"></path>
                    <path d="M42.8548951,22.9064685 C42.0493007,21.9928322 41.0024476,21.3372378 39.8428322,21.0136364 C39.6854895,17.5038462 36.898951,14.701049 33.4940559,14.701049 C32.5001748,14.701049 31.5414336,14.9370629 30.6708042,15.3917832 C29.3701049,12.665035 26.7083916,10.9048951 23.7335664,10.9048951 C19.4517483,10.9048951 15.9692308,14.5578671 15.9692308,19.048951 C15.9692308,19.7701049 16.0594406,20.4807692 16.2377622,21.170979 C13.8304196,22.0662587 12.1730769,24.3833916 12.1730769,27.0225524 C12.1730769,30.4662587 14.9732517,33.266958 18.4174825,33.266958 L38.1587413,33.266958 C41.602972,33.266958 44.4036713,30.4662587 44.4036713,27.0225524 C44.4057692,25.5041958 43.8545455,24.0435315 42.8548951,22.9064685 Z" id="Fill-1" stroke="#5A5A5A" stroke-width="2.6" fill="#FAFAFA"></path>
                </g>
            </g>
        </g>
    </g>
</svg>