<?xml version="1.0" encoding="UTF-8" standalone="no"?>
<svg width="45px" height="43px" viewBox="0 0 45 43" version="1.1" xmlns="http://www.w3.org/2000/svg" xmlns:xlink="http://www.w3.org/1999/xlink" xmlns:sketch="http://www.bohemiancoding.com/sketch/ns">
    <!-- Generator: sketchtool 3.4.4 (395) - http://www.bohemiancoding.com/sketch -->
    <title>snow_ico</title>
    <desc>Created with sketchtool.</desc>
    <defs></defs>
    <g id="Toolkit-&amp;-Styleguide" stroke="none" stroke-width="1" fill="none" fill-rule="evenodd" sketch:type="MSPage">
        <g id="Global-Style" sketch:type="MSArtboardGroup" transform="translate(-1053.000000, -1642.000000)">
            <g id="Icons" sketch:type="MSLayerGroup" transform="translate(708.000000, 946.000000)">
                <g id="snow_ico" transform="translate(345.000000, 696.000000)" sketch:type="MSShapeGroup">
                    <path d="M9.90495868,34.3229498 C9.29918945,33.9682136 8.52248887,34.1749046 8.17061348,34.7785283 L7.70073109,35.5831214 C7.34885569,36.1896058 7.55268595,36.9663064 8.1563096,37.3181818 C8.35727908,37.4354736 8.578274,37.4912587 8.79354736,37.4912587 C9.22910045,37.4912587 9.65392562,37.2652575 9.89136999,36.8626033 L10.3605372,36.0580102 C10.7124126,35.4543865 10.5085823,34.677686 9.90495868,34.3229498 L9.90495868,34.3229498 Z" id="Fill-2" fill="#B3C8DA"></path>
                    <path d="M16.5174825,38.7063732 C15.9117133,38.351637 15.1350127,38.558328 14.7824221,39.1619517 L14.3132549,39.9665448 C13.9613795,40.5730292 14.1652098,41.3490146 14.7688334,41.7016052 C14.9698029,41.818897 15.1907978,41.8746821 15.4060712,41.8746821 C15.8416243,41.8746821 16.2664495,41.6479657 16.5038938,41.2460267 L16.973061,40.4414336 C17.3277972,39.8349491 17.1239669,39.0582486 16.5174825,38.7063732 L16.5174825,38.7063732 Z" id="Fill-6" fill="#B3C8DA"></path>
                    <path d="M36.4717101,34.3229498 C35.8659409,33.9682136 35.0892403,34.1749046 34.7373649,34.7785283 L34.2674825,35.5831214 C33.9156071,36.1896058 34.1194374,36.9663064 34.723061,37.3181818 C34.9240305,37.4354736 35.1450254,37.4912587 35.3602988,37.4912587 C35.7958519,37.4912587 36.2206771,37.2652575 36.4581214,36.8626033 L36.9272886,36.0580102 C37.279164,35.4543865 37.0753338,34.677686 36.4717101,34.3229498 L36.4717101,34.3229498 Z" id="Fill-9" fill="#B3C8DA"></path>
                    <path d="M42.074857,16.5997298 C40.9763191,15.353862 39.5487921,14.4598697 37.9674984,14.018595 C37.7529402,9.23251748 33.9531151,5.4105213 29.3100763,5.4105213 C27.9547839,5.4105213 26.6474094,5.73235855 25.4601875,6.35243166 C23.6865067,2.63413859 20.0568976,0.23394787 16.0003179,0.23394787 C10.1614749,0.23394787 5.41258741,5.21527336 5.41258741,11.3394787 C5.41258741,12.3228703 5.53560076,13.291958 5.77876669,14.2331532 C2.4960267,15.4539892 0.236013986,18.6137158 0.236013986,22.2125715 C0.236013986,26.9085346 4.0544342,30.7276701 8.75111252,30.7276701 L35.6710108,30.7276701 C40.3676891,30.7276701 44.1868245,26.9085346 44.1868245,22.2125715 C44.1896853,20.1420852 43.4380165,18.1502702 42.074857,16.5997298 Z" id="Fill-1" stroke="#5A5A5A" stroke-width="2.6" fill="#FAFAFA"></path>
                    <rect id="Rectangle-58" fill="#FAFAFA" x="11" y="20" width="22" height="11"></rect>
                    <path d="M9.90495868,34.3229498 C9.29918945,33.9682136 8.52248887,34.1749046 8.17061348,34.7785283 L7.70073109,35.5831214 C7.34885569,36.1896058 7.55268595,36.9663064 8.1563096,37.3181818 C8.35727908,37.4354736 8.578274,37.4912587 8.79354736,37.4912587 C9.22910045,37.4912587 9.65392562,37.2652575 9.89136999,36.8626033 L10.3605372,36.0580102 C10.7124126,35.4543865 10.5085823,34.677686 9.90495868,34.3229498 L9.90495868,34.3229498 Z" id="Fill-2" fill="#B3C8DA" transform="translate(9.030634, 35.820260) rotate(-250.000000) translate(-9.030634, -35.820260) "></path>
                    <path d="M16.5174825,38.7063732 C15.9117133,38.351637 15.1350127,38.558328 14.7824221,39.1619517 L14.3132549,39.9665448 C13.9613795,40.5730292 14.1652098,41.3490146 14.7688334,41.7016052 C14.9698029,41.818897 15.1907978,41.8746821 15.4060712,41.8746821 C15.8416243,41.8746821 16.2664495,41.6479657 16.5038938,41.2460267 L16.973061,40.4414336 C17.3277972,39.8349491 17.1239669,39.0582486 16.5174825,38.7063732 L16.5174825,38.7063732 Z" id="Fill-6" fill="#B3C8DA" transform="translate(15.644110, 40.203683) rotate(-250.000000) translate(-15.644110, -40.203683) "></path>
                    <path d="M36.4717101,34.3229498 C35.8659409,33.9682136 35.0892403,34.1749046 34.7373649,34.7785283 L34.2674825,35.5831214 C33.9156071,36.1896058 34.1194374,36.9663064 34.723061,37.3181818 C34.9240305,37.4354736 35.1450254,37.4912587 35.3602988,37.4912587 C35.7958519,37.4912587 36.2206771,37.2652575 36.4581214,36.8626033 L36.9272886,36.0580102 C37.279164,35.4543865 37.0753338,34.677686 36.4717101,34.3229498 L36.4717101,34.3229498 Z" id="Fill-9" fill="#B3C8DA" transform="translate(35.597386, 35.820260) rotate(-250.000000) translate(-35.597386, -35.820260) "></path>
                    <path d="M32.4717101,39.3229498 C31.8659409,38.9682136 31.0892403,39.1749046 30.7373649,39.7785283 L30.2674825,40.5831214 C29.9156071,41.1896058 30.1194374,41.9663064 30.723061,42.3181818 C30.9240305,42.4354736 31.1450254,42.4912587 31.3602988,42.4912587 C31.7958519,42.4912587 32.2206771,42.2652575 32.4581214,41.8626033 L32.9272886,41.0580102 C33.279164,40.4543865 33.0753338,39.677686 32.4717101,39.3229498 L32.4717101,39.3229498 Z" id="Fill-9" fill="#B3C8DA"></path>
                    <path d="M32.4717101,39.3229498 C31.8659409,38.9682136 31.0892403,39.1749046 30.7373649,39.7785283 L30.2674825,40.5831214 C29.9156071,41.1896058 30.1194374,41.9663064 30.723061,42.3181818 C30.9240305,42.4354736 31.1450254,42.4912587 31.3602988,42.4912587 C31.7958519,42.4912587 32.2206771,42.2652575 32.4581214,41.8626033 L32.9272886,41.0580102 C33.279164,40.4543865 33.0753338,39.677686 32.4717101,39.3229498 L32.4717101,39.3229498 Z" id="Fill-9" fill="#B3C8DA" transform="translate(31.597386, 40.820260) rotate(-250.000000) translate(-31.597386, -40.820260) "></path>
                    <path d="M21.3174469,20.5392669 L21.3049036,22.8974063 L19.6035525,21.7212723 C19.5128137,21.6556201 19.4033935,21.6182571 19.2907707,21.6150546 C18.7393995,21.6107845 18.516289,22.3238842 18.9718508,22.6345309 L21.2923603,24.2483458 L21.2675406,27.9387432 L18.0836788,26.1311744 L17.852295,23.3100006 C17.8314785,23.0183023 17.5883521,22.7909217 17.2955863,22.7909217 C16.9649237,22.7898542 16.7065852,23.0756812 16.7388775,23.4039419 L16.9078116,25.4618428 L14.8435056,24.2859757 C14.2190097,23.997213 13.7218148,24.8570959 14.2806586,25.2491406 L16.3385596,26.4564994 L14.4682743,27.3382663 C14.1659008,27.4551592 14.0263233,27.8042364 14.1648333,28.0972691 C14.3036102,28.3903018 14.6612275,28.5037252 14.9435851,28.3454662 L17.5018834,27.1381074 L20.6606586,28.9897111 L17.5018834,30.8474531 L14.9435851,29.6400943 C14.860319,29.5973937 14.7685127,29.5755097 14.6745715,29.5776447 C14.0794322,29.5952587 13.9219738,30.4084378 14.4682743,30.6472942 L16.3321545,31.5290611 L14.2867968,32.7300148 C14.0127125,32.88347 13.9209063,33.2253415 14.0740946,33.4932877 C14.2275498,33.7612338 14.5694213,33.8527731 14.8373674,33.6995848 L16.9078116,32.5237177 L16.7388775,34.5816186 C16.7127234,34.8901303 16.942239,35.161279 17.2518182,35.185298 C17.5603298,35.2101177 17.830411,34.9776665 17.852295,34.6691548 L18.0836788,31.8543861 L21.2675406,30.0468173 L21.2923603,33.7121281 L18.9718508,35.319538 C18.6809531,35.4791314 18.5923494,35.8543627 18.7810326,36.1265789 C18.9697158,36.3995957 19.3524197,36.4487014 19.6035525,36.2327966 L21.3049036,35.0633345 L21.3174469,37.4337503 C21.3174469,38.1866149 22.4370027,38.1866149 22.4370027,37.4401554 L22.455951,35.0633345 L24.1508971,36.2327966 C24.4022967,36.4487014 24.7847338,36.3995957 24.9734169,36.1265789 C25.1621001,35.8543627 25.0734964,35.4791314 24.7825987,35.319538 L22.4620892,33.7121281 L22.4871758,30.0468173 L25.6710376,31.8543861 L25.9024214,34.6691548 C25.964871,35.4062735 27.0689478,35.319538 27.0158389,34.5816186 L26.8469048,32.5237177 L28.8797191,33.6809033 C29.5634621,34.070813 30.1201709,33.101243 29.4740578,32.7300148 L27.4222951,31.5290611 L29.2861753,30.6472942 C29.8410159,30.4041678 29.6667441,29.5765772 29.0611966,29.5776447 C28.9736604,29.5787122 28.8879924,29.6005963 28.8108645,29.6400943 L26.2525661,30.8410481 L23.0937909,28.9897111 L26.2651094,27.1319692 L28.8234077,28.3390611 C29.1060322,28.497587 29.4636495,28.3838967 29.6021595,28.090864 C29.7409364,27.7980982 29.601092,27.4487541 29.2987185,27.3321281 L27.4348383,26.4500943 L29.4676527,25.2555457 C29.7449396,25.0866115 29.8263376,24.7321967 29.6552684,24.4671863 C29.4948743,24.2221917 29.1727518,24.1439963 28.917349,24.2859757 L26.8594481,25.4492995 L27.0281154,23.3978037 C27.0617421,23.0610029 26.7905934,22.7722402 26.4527251,22.7847835 C26.167165,22.7941243 25.9347137,23.0183023 25.9149647,23.3038624 L25.683314,26.1186311 L22.4871758,27.9387432 L22.4620892,24.2483458 L24.7825987,22.6345309 C25.2477682,22.3188135 25.0067768,21.5910355 24.4449973,21.6150546 C24.3385127,21.6211928 24.2365651,21.6588227 24.1508971,21.7212723 L22.455951,22.8974063 L22.4370027,20.5766299 C22.4265944,20.2243501 22.1575807,19.9804231 21.8429309,20.0012396 C21.5552357,20.0177861 21.3278552,20.2515718 21.3174469,20.5392669 Z" id="frost_ico" fill="#B3C8DA"></path>
                </g>
            </g>
        </g>
    </g>
</svg>