<?xml version="1.0" encoding="UTF-8" standalone="no"?>
<svg width="48px" height="50px" viewBox="0 0 48 50" version="1.1" xmlns="http://www.w3.org/2000/svg" xmlns:xlink="http://www.w3.org/1999/xlink" xmlns:sketch="http://www.bohemiancoding.com/sketch/ns">
    <!-- Generator: sketchtool 3.4.4 (395) - http://www.bohemiancoding.com/sketch -->
    <title>shower_ico</title>
    <desc>Created with sketchtool.</desc>
    <defs></defs>
    <g id="Toolkit-&amp;-Styleguide" stroke="none" stroke-width="1" fill="none" fill-rule="evenodd" sketch:type="MSPage">
        <g id="Global-Style" sketch:type="MSArtboardGroup" transform="translate(-971.000000, -1286.000000)">
            <g id="Icons" sketch:type="MSLayerGroup" transform="translate(708.000000, 946.000000)">
                <g id="shower_ico" transform="translate(263.000000, 340.000000)" sketch:type="MSShapeGroup">
                    <path d="M44.9015152,18.0871212 C43.7378788,16.7674242 42.2257576,15.8204545 40.5507576,15.3530303 C40.3234848,10.2833333 36.2984848,6.23484848 31.380303,6.23484848 C29.944697,6.23484848 28.5598485,6.57575758 27.3022727,7.23257576 C25.4234848,3.29393939 21.5787879,0.751515152 17.2818182,0.751515152 C11.0969697,0.751515152 6.06666667,6.0280303 6.06666667,12.5151515 C6.06666667,13.5568182 6.1969697,14.5833333 6.45454545,15.580303 C2.97727273,16.8734848 0.583333333,20.2204545 0.583333333,24.0325758 C0.583333333,29.0068182 4.6280303,33.0522727 9.6030303,33.0522727 L38.1181818,33.0522727 C43.0931818,33.0522727 47.1386364,29.0068182 47.1386364,24.0325758 C47.1416667,21.8393939 46.3454545,19.7295455 44.9015152,18.0871212 L44.9015152,18.0871212 Z M38.1212121,30.3621212 L9.60606061,30.3621212 C6.11363636,30.3621212 3.27272727,27.5212121 3.27272727,24.0295455 C3.27272727,20.9962121 5.43636364,18.380303 8.41590909,17.8121212 C8.80984848,17.7378788 9.1469697,17.4924242 9.34242424,17.1401515 C9.53484848,16.7909091 9.56136364,16.3734848 9.41666667,16.0007576 C8.98106061,14.8878788 8.75909091,13.7136364 8.75909091,12.5121212 C8.75909091,7.50757576 12.5856061,3.43560606 17.2848485,3.43560606 C20.9606061,3.43560606 24.2128788,5.93333333 25.3727273,9.65 C25.5060606,10.0734848 25.8371212,10.4045455 26.2606061,10.5318182 C26.6840909,10.6621212 27.1454545,10.5765152 27.4916667,10.2984848 C28.6280303,9.39545455 29.9712121,8.91666667 31.3833333,8.91666667 C34.9636364,8.91666667 37.8787879,12.0030303 37.8787879,15.7992424 C37.8787879,15.9621212 37.8666667,16.1431818 37.8522727,16.3348485 C37.8015152,17.0424242 38.3045455,17.6666667 39.0060606,17.7643939 C42.1166667,18.1969697 44.4606061,20.8893939 44.4606061,24.0265152 C44.4545455,27.5212121 41.6136364,30.3621212 38.1212121,30.3621212 L38.1212121,30.3621212 Z" id="Fill-1" fill="#5A5A5A"></path>
                    <path d="M14.0030303,36.8606061 C13.3613636,36.4848485 12.5386364,36.7037879 12.1659091,37.3431818 L11.6681818,38.1954545 C11.2954545,38.8378788 11.5113636,39.6606061 12.1507576,40.0333333 C12.3636364,40.1575758 12.5977273,40.2166667 12.8257576,40.2166667 C13.2871212,40.2166667 13.7371212,39.9772727 13.9886364,39.5507576 L14.4856061,38.6984848 C14.8583333,38.0590909 14.6424242,37.2363636 14.0030303,36.8606061 L14.0030303,36.8606061 Z" id="Fill-2" fill="#0D65AD"></path>
                    <path d="M11.2954545,41.5037879 C10.6530303,41.1280303 9.83106061,41.3469697 9.45757576,41.9863636 L8.96060606,42.8386364 C8.58787879,43.4810606 8.80378788,44.3030303 9.44318182,44.6765152 C9.65606061,44.8007576 9.89015152,44.8598485 10.1174242,44.8598485 C10.5795455,44.8598485 11.0295455,44.619697 11.2810606,44.1939394 L11.7780303,43.3416667 C12.1507576,42.6992424 11.9348485,41.8765152 11.2954545,41.5037879 L11.2954545,41.5037879 Z" id="Fill-3" fill="#0D65AD"></path>
                    <path d="M8.58787879,46.1469697 C7.94545455,45.7712121 7.12272727,45.9901515 6.75,46.6325758 L6.2530303,47.4848485 C5.88030303,48.1265152 6.09621212,48.9492424 6.73560606,49.3219697 C6.94848485,49.4469697 7.18181818,49.5060606 7.40984848,49.5060606 C7.8719697,49.5060606 8.32121212,49.2659091 8.57272727,48.8401515 L9.07045455,47.9878788 C9.44318182,47.3424242 9.22727273,46.519697 8.58787879,46.1469697 L8.58787879,46.1469697 Z" id="Fill-4" fill="#0D65AD"></path>
                    <path d="M17.3590909,46.1469697 C16.7166667,45.7712121 15.8939394,45.9901515 15.5212121,46.6325758 L15.0242424,47.4818182 C14.6515152,48.1234848 14.8674242,48.9462121 15.5068182,49.319697 C15.719697,49.4439394 15.9537879,49.5030303 16.1810606,49.5030303 C16.6431818,49.5030303 17.0924242,49.2628788 17.344697,48.8371212 L17.8416667,47.9848485 C18.2174242,47.3424242 18.0015152,46.519697 17.3590909,46.1469697 L17.3590909,46.1469697 Z" id="Fill-5" fill="#0D65AD"></path>
                    <path d="M20.0666667,41.5037879 C19.425,41.1280303 18.6022727,41.3469697 18.2287879,41.9863636 L17.7318182,42.8386364 C17.3590909,43.4810606 17.575,44.3030303 18.2143939,44.6765152 C18.4272727,44.8007576 18.6613636,44.8598485 18.8893939,44.8598485 C19.3507576,44.8598485 19.8007576,44.619697 20.0522727,44.1939394 L20.5492424,43.3416667 C20.925,42.6992424 20.7090909,41.8765152 20.0666667,41.5037879 L20.0666667,41.5037879 Z" id="Fill-6" fill="#0D65AD"></path>
                    <path d="M22.7772727,36.8606061 C22.1356061,36.4848485 21.3128788,36.7037879 20.9401515,37.3431818 L20.4424242,38.1954545 C20.069697,38.8378788 20.2856061,39.6606061 20.925,40.0333333 C21.1378788,40.1575758 21.3719697,40.2166667 21.6,40.2166667 C22.0613636,40.2166667 22.5113636,39.9772727 22.7628788,39.5507576 L23.2598485,38.6984848 C23.6325758,38.0590909 23.4166667,37.2363636 22.7772727,36.8606061 L22.7772727,36.8606061 Z" id="Fill-7" fill="#0D65AD"></path>
                    <path d="M28.8439394,41.5037879 C28.2022727,41.1280303 27.3795455,41.3469697 27.0060606,41.9863636 L26.5090909,42.8386364 C26.1333333,43.4810606 26.3522727,44.3030303 26.9916667,44.6765152 C27.2045455,44.8007576 27.4386364,44.8598485 27.6666667,44.8598485 C28.1280303,44.8598485 28.5780303,44.619697 28.8295455,44.1939394 L29.3265152,43.3416667 C29.6992424,42.6992424 29.4833333,41.8765152 28.8439394,41.5037879 L28.8439394,41.5037879 Z" id="Fill-8" fill="#0D65AD"></path>
                    <path d="M31.5515152,36.8606061 C30.9098485,36.4848485 30.0871212,36.7037879 29.7143939,37.3431818 L29.2166667,38.1954545 C28.8439394,38.8378788 29.0598485,39.6606061 29.6992424,40.0333333 C29.9121212,40.1575758 30.1462121,40.2166667 30.3742424,40.2166667 C30.8356061,40.2166667 31.2856061,39.9772727 31.5371212,39.5507576 L32.0340909,38.6984848 C32.4068182,38.0590909 32.1909091,37.2363636 31.5515152,36.8606061 L31.5515152,36.8606061 Z" id="Fill-9" fill="#0D65AD"></path>
                    <path d="M26.1363636,46.1469697 C25.4939394,45.7712121 24.6712121,45.9901515 24.2984848,46.6295455 L23.8015152,47.4818182 C23.4287879,48.1234848 23.644697,48.9462121 24.2840909,49.319697 C24.4969697,49.4439394 24.7310606,49.5030303 24.9583333,49.5030303 C25.4204545,49.5030303 25.869697,49.2628788 26.1212121,48.8371212 L26.6189394,47.9848485 C26.9916667,47.3424242 26.7757576,46.519697 26.1363636,46.1469697 L26.1363636,46.1469697 Z" id="Fill-10" fill="#0D65AD"></path>
                </g>
            </g>
        </g>
    </g>
</svg>