<?xml version="1.0" encoding="UTF-8" standalone="no"?>
<svg width="28px" height="25px" viewBox="0 0 28 25" version="1.1" xmlns="http://www.w3.org/2000/svg" xmlns:xlink="http://www.w3.org/1999/xlink" xmlns:sketch="http://www.bohemiancoding.com/sketch/ns">
    <!-- Generator: Sketch 3.4.2 (15857) - http://www.bohemiancoding.com/sketch -->
    <title>weather_warning_icon</title>
    <desc>Created with Sketch.</desc>
    <defs></defs>
    <g id="04.-Weather" stroke="none" stroke-width="1" fill="none" fill-rule="evenodd" sketch:type="MSPage">
        <g id="Weather-Warnings-Copy" sketch:type="MSArtboardGroup" transform="translate(-21.000000, -98.000000)" fill="#FFD520">
            <g id="Warning-1" sketch:type="MSLayerGroup" transform="translate(21.000000, 96.000000)">
                <path d="M26.7495242,22.0518821 L16.0691661,3.558611 L16.0665309,3.56011682 C15.9325135,3.28794104 15.7589685,3.03345857 15.5342259,2.80721011 C14.4560634,1.73092996 12.7078141,1.73092996 11.6296516,2.80721011 C11.4342724,3.0025894 11.2739032,3.22168525 11.1519323,3.45282761 L11.1519323,3.4513218 L0.477220996,21.9491103 L0.477220996,21.9532513 C0.30819344,22.2005812 0.174552499,22.4799096 0.0951208407,22.7870955 C-0.300531636,24.2590281 0.574345962,25.7753822 2.04627858,26.1680231 C2.31092529,26.2384199 2.57858363,26.2677832 2.84360679,26.2591248 L24.1998056,26.2561132 L24.1998056,26.2531015 C25.2233823,26.3238748 26.2439474,25.8280857 26.7924399,24.8828113 C27.3172159,23.9710413 27.2671476,22.8857263 26.7495242,22.0518821 L26.7495242,22.0518821 Z M14.8456927,22.1399722 C14.4782742,22.4870622 14.0472351,22.662113 13.5578457,22.662113 C13.059045,22.662113 12.6223591,22.4870622 12.2575758,22.1399722 C11.8901574,21.790247 11.7064481,21.3738896 11.7064481,20.8871354 C11.7064481,20.4048987 11.8901574,19.9874119 12.2575758,19.6297812 C12.6208533,19.2740328 13.059045,19.098982 13.5578457,19.098982 C14.0472351,19.098982 14.4782742,19.2740328 14.8456927,19.6297812 C15.2134876,19.9859061 15.3987026,20.4048987 15.3987026,20.8871354 C15.3987026,21.3738896 15.2149934,21.7887412 14.8456927,22.1399722 L14.8456927,22.1399722 Z M15.286896,11.3259731 C15.1942885,11.7596474 15.0753292,12.2656007 14.9341592,12.847974 C14.798636,13.3964665 14.6412785,14.0816116 14.4737567,14.9052916 C14.2972001,15.7240776 14.1180083,16.7405017 13.9222526,17.9477876 L13.1825217,17.9477876 C12.9901541,16.7269494 12.8060684,15.7109018 12.6298882,14.8977625 C12.457849,14.0876349 12.3046325,13.405125 12.1694858,12.8551266 C12.0460091,12.3506791 11.9357082,11.8597839 11.83256,11.3745356 C11.7297882,10.890793 11.6797199,10.5290213 11.6797199,10.2831973 C11.6797199,9.79493729 11.8592882,9.37443889 12.2267067,9.02471372 C12.5945016,8.6746121 13.0326933,8.50257292 13.5457992,8.50257292 C14.0517525,8.50257292 14.4914501,8.6746121 14.863386,9.02471372 C15.2398393,9.37443889 15.428066,9.79493729 15.428066,10.2831973 C15.4295718,10.5467146 15.3795035,10.8934282 15.286896,11.3259731 L15.286896,11.3259731 Z" id="Weather_warning_ICO" sketch:type="MSShapeGroup"></path>
            </g>
        </g>
    </g>
</svg>