<?xml version="1.0" encoding="UTF-8" standalone="no"?>
<svg width="45px" height="45px" viewBox="0 0 45 45" version="1.1" xmlns="http://www.w3.org/2000/svg" xmlns:xlink="http://www.w3.org/1999/xlink" xmlns:sketch="http://www.bohemiancoding.com/sketch/ns">
    <!-- Generator: sketchtool 3.4.4 (395) - http://www.bohemiancoding.com/sketch -->
    <title>clear_ico</title>
    <desc>Created with sketchtool.</desc>
    <defs></defs>
    <g id="Toolkit-&amp;-Styleguide" stroke="none" stroke-width="1" fill="none" fill-rule="evenodd" sketch:type="MSPage">
        <g id="Global-Style" sketch:type="MSArtboardGroup" transform="translate(-1052.000000, -1289.000000)">
            <g id="Icons" sketch:type="MSLayerGroup" transform="translate(708.000000, 946.000000)">
                <g id="clear_ico" transform="translate(344.000000, 343.000000)" sketch:type="MSShapeGroup">
                    <path d="M22.5,32.5862069 C28.0704583,32.5862069 32.5862069,28.0704583 32.5862069,22.5 C32.5862069,16.9295417 28.0704583,12.4137931 22.5,12.4137931 C16.9295417,12.4137931 12.4137931,16.9295417 12.4137931,22.5 C12.4137931,28.0704583 16.9295417,32.5862069 22.5,32.5862069 Z" id="Oval-7" stroke="#FFD520" stroke-width="3"></path>
                    <path d="M23.9392241,6.5187931 L23.9392241,1.93965517 C23.9392241,-0.0302586207 20.8846552,-0.0302586207 20.8846552,1.93965517 L20.8846552,6.5187931 C20.8846552,8.49181034 23.9392241,8.49181034 23.9392241,6.5187931 L23.9392241,6.5187931 Z" id="Fill-20" fill="#FFD520"></path>
                    <path d="M23.9392241,43.2333621 L23.9392241,38.6534483 C23.9392241,36.6835345 20.8846552,36.6835345 20.8846552,38.6534483 L20.8846552,43.2333621 C20.8846552,45.2063793 23.9392241,45.2063793 23.9392241,43.2333621 L23.9392241,43.2333621 Z" id="Fill-21" fill="#FFD520"></path>
                    <path d="M6.34655172,21.0607759 L1.76353448,21.0607759 C-0.20637931,21.0607759 -0.20637931,24.1153448 1.76353448,24.1153448 L6.34655172,24.1153448 C8.31646552,24.1153448 8.31646552,21.0607759 6.34655172,21.0607759 L6.34655172,21.0607759 Z" id="Fill-22" fill="#FFD520"></path>
                    <path d="M43.0603448,21.0607759 L38.4812069,21.0607759 C36.5112931,21.0607759 36.5112931,24.1153448 38.4812069,24.1153448 L43.0603448,24.1153448 C45.0302586,24.1153448 45.0302586,21.0607759 43.0603448,21.0607759 L43.0603448,21.0607759 Z" id="Fill-23" fill="#FFD520"></path>
                    <path d="M34.9836207,12.1771552 C36.062069,11.0987069 37.1443966,10.0163793 38.2236207,8.93793103 C39.617069,7.5437069 37.4562931,5.38293103 36.062069,6.77637931 C34.9836207,7.85560345 33.9012931,8.93793103 32.8228448,10.0163793 C31.4286207,11.4106034 33.5893966,13.5713793 34.9836207,12.1771552 L34.9836207,12.1771552 Z" id="Fill-24" fill="#FFD520"></path>
                    <path d="M8.76491379,38.3958621 C9.84413793,37.3174138 10.9225862,36.2350862 12.0018103,35.1589655 C13.3960345,33.7655172 11.2344828,31.6039655 9.84103448,32.9981897 C8.76181034,34.0774138 7.68258621,35.1589655 6.60413793,36.2350862 C5.20991379,37.6324138 7.36758621,39.7900862 8.76491379,38.3958621 L8.76491379,38.3958621 Z" id="Fill-25" fill="#FFD520"></path>
                    <path d="M12.0018103,10.0163793 C10.9225862,8.93793103 9.84103448,7.85560345 8.76491379,6.77637931 C7.37068966,5.38293103 5.20991379,7.5437069 6.60413793,8.93793103 C7.68258621,10.0163793 8.76491379,11.0987069 9.84103448,12.1771552 C11.2344828,13.5713793 13.3960345,11.4106034 12.0018103,10.0163793 L12.0018103,10.0163793 Z" id="Fill-26" fill="#FFD520"></path>
                    <path d="M38.2236207,36.2350862 C37.1443966,35.1558621 36.0651724,34.0774138 34.9867241,32.9981897 C33.5925,31.6039655 31.4317241,33.7655172 32.8259483,35.1589655 C33.9043966,36.2381897 34.9836207,37.3174138 36.062069,38.3958621 C37.4562931,39.7900862 39.617069,37.6324138 38.2236207,36.2350862 L38.2236207,36.2350862 Z" id="Fill-27" fill="#FFD520"></path>
                </g>
            </g>
        </g>
    </g>
</svg>